<svg width="32" height="32" fill="none" xmlns="http://www.w3.org/2000/svg"><path d="M17.221 1.2L30.8 14.778l1.2-1.2L18.422 0l-1.2 1.2z" fill="#5221E6"/><path fill-rule="evenodd" clip-rule="evenodd" d="M19.234 7.601a2.546 2.546 0 00-2.804-.54l-9.423 4.04a4.225 4.225 0 00-2.352 2.559 466.74 466.74 0 00-2.98 9.346 132.728 132.728 0 00-1.176 4.039c-.148.551-.27 1.036-.355 1.427-.079.364-.144.723-.144.981v.352l2.194 2.194h.352c.258 0 .617-.065.981-.144a31.78 31.78 0 001.427-.355c1.105-.297 2.51-.71 4.039-1.175a467.92 467.92 0 009.346-2.982 4.225 4.225 0 002.56-2.351l4.038-9.424a2.546 2.546 0 00-.54-2.803l-5.163-5.164zm-2.135 1.02a.849.849 0 01.934.18l5.164 5.165a.848.848 0 01.18.934l-4.038 9.423a2.528 2.528 0 01-1.531 1.409 465.373 465.373 0 01-9.31 2.97c-1.522.463-2.907.87-3.984 1.159-.54.145-.994.258-1.347.335l-.207.043 8.672-8.672a2.547 2.547 0 10-1.2-1.2L1.76 29.04c.012-.063.027-.132.043-.207.077-.353.19-.808.335-1.347.29-1.078.696-2.462 1.16-3.984a464.713 464.713 0 012.97-9.31 2.528 2.528 0 011.408-1.53l9.423-4.04z" fill="#5221E6"/></svg>