<svg aria-hidden="true" style="position:absolute;width:0;height:0" xmlns="http://www.w3.org/2000/svg" overflow="hidden"><defs><symbol id="icon-company5" viewBox="0 0 197 32"><path fill="var(--color1, #8491a0)" d="M10.194 11.141c0-.422-.143-.786-.43-1.092a1.404 1.404 0 00-1.04-.46h-.029.001c-1.338 0-2.729 1.425-4.173 4.274-1.338 2.574-2.007 4.621-2.007 6.139 0 1.373.467 2.058 1.402 2.058 1.316 0 2.633-1.33 3.949-3.988.827-1.641 1.547-3.558 2.059-5.559l.044-.201c.148-.591.224-.982.224-1.171zm3.853 7.976v.064a.237.237 0 00-.031.094v.001c-.445 1.075-1.03 1.994-1.752 2.753-.913.929-1.869 1.393-2.867 1.393-1.147 0-1.719-.685-1.719-2.057 0-.358.031-.707.095-1.044-1.422 2.068-2.972 3.101-4.652 3.101-.998 0-1.783-.39-2.355-1.17-.512-.676-.765-1.53-.765-2.565 0-2.109.924-4.442 2.771-6.995 1.975-2.701 3.981-4.051 6.02-4.051.87 0 1.604.38 2.199 1.139.169-.632.509-.948 1.019-.948.977 0 1.466.169 1.466.506 0 .064-.243.823-.732 2.278-1.892 5.635-2.835 8.874-2.835 9.718 0 .402.147.602.445.602.594 0 1.28-.538 2.054-1.614.776-1.075 1.174-1.614 1.194-1.614.298 0 .447.137.447.411zM30.23 6.456c0-1.772-.43-3.044-1.289-3.813-.861-.771-2.163-1.146-3.904-1.124-1.358 0-2.038.294-2.038.886v9.02c.786.128 1.358.189 1.72.189 3.695-.019 5.531-1.741 5.51-5.158zm3.759 0c0 4.22-2.879 6.33-8.632 6.33-.745 0-1.53-.041-2.358-.125v5.635c0 1.984.351 3.123 1.051 3.418.042.022.499.159 1.37.412.509.127.754.294.733.506-.022.253-.192.38-.511.38h-8.664c-.317 0-.488-.127-.508-.38-.022-.21.221-.379.732-.506.87-.253 1.326-.39 1.37-.412.7-.294 1.05-1.434 1.05-3.418V5.318c0-1.984-.349-3.123-1.05-3.418-.044-.022-.499-.159-1.37-.412-.511-.127-.755-.294-.732-.507.02-.253.191-.379.508-.379h9.334c2.209 0 3.992.453 5.35 1.361 1.551 1.011 2.327 2.51 2.327 4.494zm7.887 16.174c-.022.253-.192.38-.511.38h-6.88c-.32 0-.489-.127-.509-.38-.022-.168.223-.316.732-.443.658-.147 1.115-.305 1.37-.474s.393-.634.415-1.394V3.702c0-.568-.054-.945-.16-1.124s-.425-.269-.955-.269c-.808 0-1.211-.127-1.211-.38 0-.273.255-.463.764-.57A24.801 24.801 0 0038.564.316c.147-.044.265-.064.349-.064.212 0 .339.122.383.364.042.243.064.755.064 1.536v16.141c0 2.132.137 3.272.413 3.419.148.086.605.223 1.37.412.509.148.754.316.733.506zm9.397-3.846v-3.528c-1.572.294-2.751.652-3.535 1.07-1.275.716-1.911 1.702-1.911 2.962 0 .671.196 1.212.589 1.622s.928.614 1.609.614c.849 0 1.603-.264 2.262-.788.658-.525.986-1.176.986-1.952zm5.829 2.043c-.573 1.626-1.572 2.437-2.995 2.437-1.528 0-2.463-.768-2.802-2.31-1.615 1.541-3.25 2.31-4.906 2.31-1.062 0-1.901-.305-2.516-.915s-.924-1.443-.924-2.496c0-1.915 1.041-3.346 3.123-4.293 1.188-.526 2.918-.937 5.192-1.233.064-1.999-.096-3.293-.479-3.884-.317-.526-1.039-.778-2.166-.758-.934.022-1.55.316-1.848.887l-.444 1.582c-.212.57-.669.855-1.371.855-.934 0-1.4-.401-1.4-1.203 0-1.034.646-1.836 1.942-2.406.998-.422 2.125-.632 3.377-.632 3.441.02 5.161 1.199 5.161 3.537v7.799c0 1.137.319 1.695.955 1.673.425 0 .781-.227 1.068-.681.287-.453.494-.68.622-.68h.001c.131 0 .249.054.333.142.096.095.122.186.079.269zm12.499.011c-1.381 1.786-3.08 2.678-5.097 2.678-2.103 0-3.78-.666-5.033-1.997-1.254-1.331-1.88-3.067-1.88-5.203 0-2.135.696-3.932 2.086-5.391 1.391-1.459 3.159-2.179 5.304-2.158.977 0 1.933.211 2.867.634 1.169.527 1.752 1.224 1.752 2.089 0 .823-.425 1.234-1.275 1.234-.509 0-.908-.242-1.194-.727a33.77 33.77 0 01-.812-1.457c-.383-.506-.914-.76-1.594-.76-1.402 0-2.463.678-3.185 2.031-.553 1.079-.828 2.391-.828 3.935 0 1.692.339 3.122 1.019 4.284.806 1.439 1.985 2.158 3.535 2.158.892 0 1.741-.32 2.548-.96.17-.15.69-.695 1.562-1.633.106-.108.201-.161.285-.161.192 0 .288.16.288.479 0 .32-.118.627-.351.925zm11.493-7.328c-.128-2.508-1.137-3.75-3.026-3.73-2.039.022-3.26 1.477-3.665 4.369h3.982c1.827 0 2.729-.214 2.708-.639zm3.026 1.334c0 .233-.116.37-.351.412h-9.492a9.606 9.606 0 00-.032.666c0 1.731.319 3.132.956 4.209.806 1.329 2.016 1.994 3.631 1.994 1.062 0 1.964-.232 2.707-.696.384-.253.945-.771 1.688-1.551a.392.392 0 01.287-.125c.275 0 .415.125.415.379a.56.56 0 01-.096.284c-1.211 2.048-3.123 3.059-5.734 3.04-2.081-.023-3.758-.691-5.032-2.01-1.275-1.318-1.912-3.003-1.912-5.05 0-2.109.627-3.892 1.879-5.349 1.339-1.54 3.048-2.3 5.129-2.278 1.592 0 2.92.474 3.982 1.425 1.295 1.139 1.953 2.689 1.975 4.652zm18.667-12.786v.006c0 .324-.128.617-.336.833a1.064 1.064 0 01-.801.364h-.011.001c-.509 0-.914-.369-1.211-1.107s-.69-1.108-1.178-1.108c-1.105 0-1.976.646-2.612 1.938-.234.445-.605 1.558-1.116 3.337l-.858 2.986h3.151c.276 0 .416.131.416.392 0 .435-.236.653-.703.653h-3.121l-3.186 11.93c-.744 2.778-1.476 4.828-2.198 6.154-1.317 2.376-2.963 3.566-4.938 3.566a3.252 3.252 0 01-1.975-.632c-.573-.422-.86-.982-.86-1.678 0-.95.431-1.425 1.289-1.425.589 0 .955.232 1.101.696.042.169.064.622.064 1.361 0 .486.224.73.671.73.896 0 1.686-.803 2.368-2.404.298-.695.671-1.885 1.117-3.571l3.904-14.726H88.45c-.189 0-.285-.12-.285-.358 0-.458.201-.686.607-.686h3.185c.849-2.723 1.677-4.716 2.483-5.981C95.821 1.111 97.53.004 99.569.004c.744 0 1.434.159 2.071.474.764.38 1.147.909 1.147 1.585zm3.06 10.128c0-1.731-.584-2.596-1.752-2.596-1.338 0-2.57 1.404-3.694 4.211-.956 2.383-1.434 4.378-1.434 5.981 0 1.837.625 2.753 1.879 2.753 1.316 0 2.527-1.423 3.631-4.273.913-2.406 1.37-4.431 1.37-6.077zm2.325 1.678c0 2.195-.657 4.273-1.975 6.235-1.485 2.216-3.281 3.324-5.382 3.324-1.38 0-2.442-.549-3.186-1.646-.68-.95-1.019-2.131-1.019-3.546 0-2.172.669-4.262 2.007-6.267 1.508-2.236 3.302-3.354 5.382-3.354 1.381 0 2.442.548 3.187 1.645.658.972.986 2.173.986 3.61zm12.899-3.514c0 .38-.113.727-.335 1.044-.223.316-.516.474-.877.474-.36 0-.636-.22-.828-.663s-.445-.666-.763-.666c-1.169 0-3.081 4.157-5.734 12.471h-2.484c.637-2.131 1.274-4.273 1.911-6.426.998-3.397 1.498-5.307 1.498-5.729 0-.358-.16-.538-.477-.538-.575 0-1.116.348-1.626 1.044-.17.211-.509.791-1.019 1.741-.128.253-.307.38-.541.38-.32 0-.477-.128-.477-.38l.031-.128c.276-1.053.818-2.013 1.626-2.879.911-.95 1.879-1.425 2.898-1.425 1.125 0 1.688.644 1.688 1.932 0 .401-.074.896-.223 1.487-.15.506-.287 1.002-.415 1.487 1.613-3.27 3.132-4.906 4.554-4.906.468 0 .851.164 1.148.492.297.326.447.722.447 1.187zm29.082 12.28c-.02.255-.191.381-.509.381h-8.41c-.319 0-.489-.128-.509-.38-.022-.211.223-.38.732-.507.87-.253 1.327-.39 1.37-.411.701-.296 1.051-1.434 1.051-3.419V3.355l-8.219 19.244c-.189.443-.339.666-.445.666s-.285-.285-.541-.855l-7.072-16.143a15.804 15.804 0 00-1.185-2.248l.038.065.192 14.212c.02 1.012.064 1.699.128 2.058.147.695.456 1.149.924 1.361.041.02.498.157 1.368.411.509.128.754.296.733.507-.022.253-.191.38-.511.38h-6.816c-.319 0-.489-.128-.509-.38-.022-.211.223-.38.732-.507.87-.253 1.327-.39 1.37-.411.467-.211.776-.686.923-1.425.086-.358.128-1.024.128-1.994l.16-15.572c-.34-.274-.84-.549-1.498-.823-.64-.17-1.097-.311-1.548-.465l.178.053c-.511-.125-.754-.294-.732-.506.02-.253.191-.38.509-.38h3.822c1.444.022 2.272.09 2.484.205.211.118.531.671.956 1.664l6.785 15.793 7.327-17.187c.127-.316.413-.474.859-.474h5.225c.319 0 .489.125.509.379.02.211-.223.38-.732.506-.872.253-1.327.392-1.37.412-.701.296-1.052 1.436-1.052 3.418v12.978c0 1.984.351 3.123 1.052 3.418.042.022.498.159 1.37.412.509.128.753.296.732.507zm12.169-6.473c0-1.755-.288-3.192-.861-4.315-.742-1.459-1.901-2.189-3.471-2.189-1.572 0-2.729.751-3.471 2.253-.573 1.121-.86 2.548-.86 4.284 0 1.691.287 3.098.86 4.219.764 1.439 1.921 2.158 3.471 2.158 1.571 0 2.729-.719 3.471-2.158.573-1.12.861-2.538.861-4.252zm3.057-.189c0 2.157-.7 3.955-2.102 5.393-1.402 1.439-3.186 2.157-5.352 2.157s-3.918-.677-5.254-2.03c-1.34-1.354-2.008-3.119-2.008-5.297 0-2.157.701-3.933 2.103-5.33 1.4-1.395 3.186-2.093 5.352-2.093 2.058 0 3.785.687 5.176 2.061 1.39 1.375 2.085 3.087 2.085 5.139zm27.491 6.664c-.022.253-.192.379-.511.379h-6.88c-.319 0-.489-.125-.509-.379-.02-.168.223-.315.732-.443.658-.147 1.12-.31 1.386-.488.265-.179.398-1.311.398-3.395v-4.105c0-1.284-.159-2.221-.477-2.81-.425-.8-1.243-1.201-2.454-1.201-1.019 0-1.891.311-2.611.932-.723.622-1.083 1.384-1.083 2.29v4.893c.02 1.262.031 1.957.031 2.084.044.758.17 1.199.383 1.326.211.127.669.273 1.37.442.509.127.753.284.733.474-.022.253-.192.379-.509.379h-6.881c-.319 0-.489-.125-.509-.379-.022-.168.223-.315.732-.443.658-.147 1.119-.31 1.386-.488.265-.179.398-1.311.398-3.395V14.2c0-1.284-.159-2.221-.479-2.81-.424-.8-1.242-1.201-2.452-1.201-1.02 0-1.889.311-2.611.932-.722.622-1.083 1.384-1.083 2.29v4.893c0 2.125.137 3.263.413 3.41.148.084.604.221 1.37.41.509.147.754.316.733.506-.023.253-.192.379-.509.379h-6.881c-.319 0-.489-.127-.509-.38-.022-.168.233-.305.763-.411.659-.128 1.116-.301 1.371-.522s.383-1.357.383-3.404v-6.044c0-.571-.052-.945-.16-1.124-.106-.179-.425-.269-.956-.269-.806 0-1.21-.128-1.21-.38 0-.274.253-.465.763-.57 1.23-.253 2.44-.602 3.626-1.046.192-.041.319-.063.383-.063.191 0 .307.138.351.412.019.189.041.728.063 1.613.466-.602 1.149-1.088 2.052-1.463a7.073 7.073 0 012.782-.562c2.207 0 3.585.813 4.137 2.438 1.272-1.626 3.053-2.438 5.344-2.438 1.74 0 2.938.474 3.596 1.421.721 1.033 1.08 2.653 1.08 4.864v3.222c0 1.199.012 1.894.032 2.084.044.759.17 1.201.383 1.327.212.125.669.273 1.371.442.508.127.753.284.732.474zm2.848-1.429a.734.734 0 00-.23-.036l-.031.001h.001-.109v.494h.175l.022.001a.406.406 0 00.223-.066l-.002.001c.059-.041.088-.109.088-.201s-.046-.157-.138-.192zm-.815 1.363v-1.697h.475c.212 0 .329.003.353.004a.817.817 0 01.337.087c.152.083.228.218.228.406 0 .142-.04.246-.12.307a.557.557 0 01-.294.115h-.002a.564.564 0 01.244.1l-.002-.001c.101.081.151.207.151.381v.151c0 .036.006.07.017.102l-.001-.002.015.047h-.428a1.18 1.18 0 01-.028-.233v-.002-.006a.698.698 0 00-.03-.206l.001.005a.207.207 0 00-.124-.125h-.001a.483.483 0 00-.152-.027l-.099-.006h-.095v.602h-.447zm-.23-1.739a1.216 1.216 0 00-.369.874v.013-.001c0 .356.125.657.375.905.248.248.548.371.9.371h.018c.345 0 .657-.143.879-.374.23-.225.373-.538.373-.885v-.018V21.703c0-.344-.142-.655-.371-.877a1.21 1.21 0 00-.885-.383h-.015.001c-.355 0-.657.128-.906.384zm1.985 1.986a1.493 1.493 0 01-1.054.433h-.026.001-.033a1.49 1.49 0 01-1.063-.443 1.47 1.47 0 01-.446-1.056v-.033.002c0-.448.161-.82.481-1.116a1.513 1.513 0 011.061-.416c.425 0 .788.148 1.089.448s.452.662.452 1.083c0 .435-.154.801-.462 1.101z"/></symbol><symbol id="icon-skillset4" viewBox="0 0 38 32"><path fill="var(--color2, #5221e6)" d="M35.352 6.206h-3.47l-.798-3.598A3.318 3.318 0 0027.847.001H15.782a3.313 3.313 0 00-3.255 2.609l-.798 3.597h-.823V4.671c0-.865-.705-1.568-1.572-1.568h-5.08c-.865 0-1.57.703-1.57 1.568v1.535h-.111a2.575 2.575 0 00-2.574 2.57v17.408a2.577 2.577 0 002.574 2.571h11.941a13.259 13.259 0 007.273 2.149h.019-.001c2.684 0 5.189-.791 7.29-2.15h6.255a2.575 2.575 0 002.574-2.568V8.776a2.574 2.574 0 00-2.574-2.569zM13.973 2.927a1.842 1.842 0 011.809-1.449h12.047c.876 0 1.619.596 1.809 1.449l.727 3.277h-1.268a13.258 13.258 0 00-7.275-2.15h-.016.001c-2.686 0-5.19.791-7.291 2.15h-1.268l.727-3.277zM4.167 4.67c0-.05.04-.089.089-.089h5.08c.05 0 .09.039.09.089v1.535H4.167V4.67zm1.781 22.603v-8.032a.741.741 0 00-1.482 0v8.032H2.573a1.095 1.095 0 01-1.093-1.091V8.775c0-.602.491-1.09 1.093-1.09H12.62a13.348 13.348 0 00-4.262 9.791v.004c0 3.86 1.641 7.345 4.263 9.796H5.948zm22.697 0c-1.907 1.345-4.279 2.151-6.839 2.151s-4.932-.805-6.877-2.176l.038.025c-3.097-2.162-5.126-5.746-5.126-9.796s2.029-7.634 5.126-9.794c1.907-1.346 4.279-2.151 6.839-2.151s4.932.805 6.877 2.176l-.038-.025c3.097 2.161 5.126 5.745 5.126 9.794s-2.029 7.634-5.126 9.796zm7.799-1.091c0 .602-.491 1.09-1.093 1.09H30.99a13.348 13.348 0 004.262-9.791v-.004c0-3.86-1.641-7.343-4.262-9.796h4.361c.602 0 1.093.489 1.093 1.092v17.408z"/><path fill="var(--color2, #5221e6)" d="M21.772 8.428c-5.033 0-9.129 4.096-9.129 9.131s4.096 9.131 9.131 9.131a9.13 9.13 0 002.169-.261.696.696 0 10-.333-1.35l.005-.001a7.75 7.75 0 01-9.58-7.52c0-4.267 3.471-7.739 7.739-7.739 4.267 0 7.739 3.473 7.739 7.739v.015a7.66 7.66 0 01-1.346 4.349l.017-.026a.696.696 0 001.15.783l.001-.002a9.003 9.003 0 001.568-5.102v-.016.001c0-5.035-4.096-9.131-9.131-9.131zM5.618 9.832a2.813 2.813 0 00-2.809 2.809 2.812 2.812 0 002.809 2.81 2.812 2.812 0 002.81-2.809 2.813 2.813 0 00-2.809-2.809zm0 4.111a1.301 1.301 0 111.301-1.3c0 .717-.583 1.3-1.3 1.3z"/><path fill="var(--color2, #5221e6)" d="M28.079 24.444a.755.755 0 00-.106-.255l.002.003a.676.676 0 00-.191-.193l-.002-.002a.725.725 0 00-.249-.103l-.005-.001a.693.693 0 00-.719.296l-.002.003a.715.715 0 00-.119.39v.002c0 .145.044.279.12.39l-.002-.002a.682.682 0 00.443.298l.004.001a.694.694 0 00.634-.192.705.705 0 00.191-.639l.001.005z"/></symbol><symbol id="icon-logo" viewBox="0 0 105 32"><path fill="var(--color3, #fff)" d="M6.48 31.6H0V0h7.24c1.493 0 2.707.08 3.64.24.96.133 1.707.427 2.24.88s.893 1.107 1.08 1.96c.213.827.32 1.947.32 3.36v3.28c0 .827-.093 1.507-.28 2.04s-.427.96-.72 1.28c-.267.32-.56.56-.88.72-.32.133-.613.227-.88.28v.16c.4.107.76.267 1.08.48.347.187.64.48.88.88s.427.933.56 1.6c.16.64.24 1.467.24 2.48V31.6H8v-14c0-.347-.04-.573-.12-.68-.08-.133-.293-.2-.64-.2h-.76V31.6zm0-19.96h.76c.347 0 .56-.053.64-.16.08-.133.12-.373.12-.72V6.44c0-.347-.04-.573-.12-.68-.08-.133-.293-.2-.64-.2h-.76v6.08zm23.221 15.28c0 1.12-.093 2.013-.28 2.68-.16.667-.48 1.187-.96 1.56-.453.347-1.093.573-1.92.68-.8.107-1.853.16-3.16.16-1.28 0-2.333-.053-3.16-.16s-1.467-.333-1.92-.68c-.453-.373-.773-.893-.96-1.56-.16-.667-.24-1.56-.24-2.68v-14.6c0-1.12.08-2.013.24-2.68.187-.667.507-1.173.96-1.52.453-.373 1.093-.613 1.92-.72s1.88-.16 3.16-.16c1.307 0 2.36.053 3.16.16.827.107 1.467.347 1.92.72.48.347.8.853.96 1.52.187.667.28 1.56.28 2.68v14.6zm-7.04-1.12c0 .347.04.587.12.72.08.107.28.16.6.16.347 0 .56-.053.64-.16.08-.133.12-.373.12-.72V13.44c0-.347-.04-.573-.12-.68-.08-.133-.293-.2-.64-.2-.32 0-.52.067-.6.2-.08.107-.12.333-.12.68V25.8zM38.299 0v8.72c.347-.48.773-.813 1.28-1 .533-.187 1.187-.28 1.96-.28s1.4.093 1.88.28c.48.16.84.427 1.08.8.267.373.44.88.52 1.52.107.613.16 1.373.16 2.28v14.6c0 .933-.053 1.72-.16 2.36-.08.613-.253 1.107-.52 1.48s-.653.64-1.16.8-1.16.24-1.96.24c-.907 0-1.64-.093-2.2-.28-.56-.213-.987-.547-1.28-1v1.08h-5.32V0h5.72zm1.32 13.44c0-.32-.04-.547-.12-.68-.053-.133-.227-.2-.52-.2-.267 0-.467.053-.6.16a.736.736 0 00-.239.395l-.001.005v13a.989.989 0 00.24.44c.133.08.333.12.6.12.293 0 .467-.067.52-.2.08-.133.12-.36.12-.68V13.44zm14.188-9.28h-5.68V0h5.68v4.16zm0 27.44h-5.68V7.64h5.68V31.6zm16.264 0h-5.76V13.44c0-.32-.04-.547-.12-.68-.053-.133-.227-.2-.52-.2-.267 0-.467.053-.6.16a.962.962 0 00-.278.393l-.002.007V31.6h-5.72V7.64h5.32v1.08c.293-.453.72-.773 1.28-.96.56-.213 1.293-.32 2.2-.32.8 0 1.467.08 2 .24.56.16 1 .427 1.32.8s.547.88.68 1.52c.133.613.2 1.387.2 2.32V31.6zm8.854 0h-5.8v-5.64h5.8v5.64zM104.573 0l-3.28 31.6h-8.16l-1.08-22.92h-.16l-1.32 22.92h-8.28L79.853 0h6.52l.68 22.16h.16L88.173 0h8l.68 22.16h.16l1-22.16h6.56z"/></symbol><symbol id="icon-company6" viewBox="0 0 64 32"><path fill="var(--color1, #8491a0)" d="M44.576 10.459c.235 0 .466-.015.693-.045l8.852 12.876a5.23 5.23 0 101.992-1.389L47.615 9.486a5.23 5.23 0 10-5.923.106l-8.42 12.212a5.236 5.236 0 00-3.087-.063L21.809 9.592a5.23 5.23 0 10-5.94-.118L7.256 21.948a5.23 5.23 0 102.013 1.502l8.963-13.037a5.28 5.28 0 001.158.025l8.671 12.504a5.23 5.23 0 107.277.144l8.771-12.649c.153.014.309.02.466.02z"/></symbol><symbol id="icon-company1" viewBox="0 0 130 32"><path fill="var(--color1, #8491a0)" d="M58.885 15.477c4.093-1.35 4.837-4.766 4.826-7.549-.008-4.25-3.026-7.925-11.959-7.925L35.077 0v31.934h16.632c8.986 0 12.293-4.587 12.293-9.181 0-5.562-5.117-7.276-5.117-7.276zM42.991 6.949l11.266.009c1.268.222 2.19 1.294 2.19 2.551 0 1.285-.989 2.496-2.295 2.673l-11.154.015-.008-5.248zm10.685 17.545H42.99v-5.347l10.974.003c1.361.155 2.392 1.28 2.392 2.619 0 1.457-1.219 2.702-2.68 2.725zM101.339.005h28.177l-.015 6.97h-20.332l.018 5.147h18.331v7.005h-18.331v5.57h20.337l-.005 7.304h-28.18V.006zm-16.39.041H67.91v31.945h7.825V19.066l8.617-.009c2.469.037 4.389 2.046 4.389 4.526v8.381l7.659-.003-.015-10.31c0-4.777-4.642-6.187-4.642-6.187s4.745-1.413 4.745-7.058c0-6.909-5.973-8.36-11.538-8.36zm4.272 9.911c-.14 1.051-1.196 2.19-2.514 2.19l-10.997.005V7.037h11.002c1.314 0 2.344.962 2.51 2.225v.696zM30.004 24.271c-.113.003-10.697.206-14.35-.148-5.885-.573-7.97-4.907-7.97-8.442 0-4.41 3.025-7.656 7.71-8.265 2.228-.29 14.415-.152 14.543-.152l.256.005.026-7.266-.259.002-13.794.026c-1.534.091-4.081.247-6.688 1.306-2.55 1.177-4.671 2.901-6.282 5.032l-.03.041a15.695 15.695 0 00-3.168 9.493v.029-.002c0 1.086.087 2.164.264 3.2.992 4.843 4.186 8.85 8.766 11.006 1.547.677 3.931 1.489 8.742 1.755l2.59.055 9.871.009.026-7.688-.256.003z"/></symbol><symbol id="icon-company2" viewBox="0 0 78 32"><path fill="var(--color1, #8491a0)" d="M21.53 15.556c-1.527 4.65-5.265 7.271-10.318 7.271C4.927 22.827 0 17.839 0 11.456 0 5.158 4.927 0 10.999 0c5.647 0 11.084 4.651 11.042 12.386H3.652c.467 4.524 3.95 7.187 7.559 7.187 3.101 0 5.309-1.48 6.499-4.017h3.82zm-3.481-6.383c-.89-3.551-3.864-5.918-7.05-5.918-3.015 0-6.2 2.199-7.134 5.918h14.184zm16.69 13.654c-3.143 0-5.862-1.69-7.432-3.805V32h-3.61V.55h3.482v3.467C28.708 1.819 31.51 0 34.738 0c6.285 0 10.915 5.116 10.915 11.372 0 6.34-4.63 11.454-10.914 11.454zm0-19.529c-4.035 0-7.432 3.635-7.432 8.074 0 4.48 3.396 8.158 7.432 8.158 4.076 0 7.305-3.678 7.305-8.158 0-4.439-3.229-8.074-7.305-8.074zM47.224.551h3.609V22.32h-3.609V.55zm5.222 10.918c0-6.353 5.181-11.463 11.738-11.463 6.56 0 11.741 5.109 11.741 11.463 0 6.353-5.228 11.369-11.741 11.369-6.51 0-11.738-5.016-11.738-11.369zm12.73-7.994c-5.976-.52-9.3 4.009-9.3 9.284 0 5.274 4.369 9.553 9.754 9.553h.018a9.819 9.819 0 005.652-1.779l-.032.021-1.352-3.427c1.397-1.448 2.205-3.45 2.205-5.662 0-4.373-3.068-7.627-6.946-7.99z"/><path fill="var(--color1, #8491a0)" d="M62.029 13.657l10.648 8.625h5.667l-10.375-8.626z"/></symbol><symbol id="icon-skillset2" viewBox="0 0 32 32"><path fill="var(--color2, #5221e6)" d="M17.221 1.2L30.8 14.778l1.2-1.2L18.422 0l-1.2 1.2zM19.234 7.601a2.547 2.547 0 00-2.821-.534l.016-.006-9.423 4.04a4.25 4.25 0 00-2.343 2.529l-.009.03c-.081-.194-1.098 2.916-2.082 6.04l-.898 3.306c-.167.399-.57 1.747-.951 3.104l-.225.935c-.148.551-.27 1.036-.355 1.427-.079.364-.144.723-.144.981v.352l2.194 2.194h.352c.258 0 .617-.065.981-.144a27.348 27.348 0 001.651-.409l-.224.054c1.105-.297 2.51-.71 4.039-1.175 6.438-1.886 9.548-2.903 12.643-3.952l-3.297.97a4.248 4.248 0 002.549-2.324l.011-.027 4.038-9.424c.13-.296.206-.64.206-1.003 0-.703-.285-1.34-.746-1.8l-5.163-5.164zm-2.135 1.02a.85.85 0 01.934.18l5.164 5.165a.844.844 0 01.178.94l.002-.005-4.038 9.423a2.546 2.546 0 01-1.513 1.404l-.018.005c.196.08-2.902 1.093-6.014 2.074l-3.296.896c-1.522.463-2.907.87-3.984 1.159-.54.145-.994.258-1.347.335l-.207.043 8.672-8.672a2.547 2.547 0 10-1.193-1.185l-.007-.015-8.672 8.673c.012-.063.027-.132.043-.207.077-.353.19-.808.335-1.347.29-1.078.696-2.462 1.16-3.984 1.876-6.404 2.889-9.502 3.933-12.585l-.963 3.275a2.543 2.543 0 011.392-1.524l.016-.006 9.423-4.04z"/></symbol><symbol id="icon-dribble" viewBox="0 0 32 32"><path fill="var(--color4, #e94b88)" d="M16 32C7.178 32 0 24.822 0 16S7.178 0 16 0s16 7.178 16 16-7.178 16-16 16zm13.493-13.81c-.467-.147-4.229-1.27-8.512-.584 1.787 4.912 2.515 8.912 2.656 9.744 3.067-2.09 5.219-5.327 5.845-9.08l.011-.08zm-8.155 10.412c-.203-1.2-.997-5.378-2.915-10.365l-.09.032c-7.709 2.685-10.475 8.032-10.72 8.534a13.56 13.56 0 008.391 2.884c1.927 0 3.76-.399 5.422-1.12l-.088.034zM5.846 25.158c.31-.53 4.061-6.739 11.109-9.018.179-.058.358-.112.539-.163a40.86 40.86 0 00-1.229-2.573l.12.253C9.561 15.702 2.939 15.615 2.34 15.604a13.564 13.564 0 003.516 9.567l-.01-.012zM2.624 13.222c.611.008 6.242.032 12.634-1.666-1.762-3.093-3.437-5.674-5.24-8.156l.174.252c-3.837 1.84-6.644 5.305-7.551 9.477l-.017.091zM12.8 2.734a71.061 71.061 0 014.908 7.63l.19.37c4.861-1.821 6.918-4.586 7.163-4.936a13.586 13.586 0 00-9.064-3.444c-1.135 0-2.238.139-3.292.4l.094-.02zm13.781 4.645c-.288.389-2.579 3.325-7.632 5.387.321.622.724 1.505 1.097 2.405l.103.28c4.549-.571 9.067.346 9.518.44a13.547 13.547 0 00-3.107-8.535l.018.023z"/></symbol><symbol id="icon-skillset1" viewBox="0 0 26 32"><path fill="var(--color2, #5221e6)" d="M24.12 23.112v7.11h-9.932v-7.111h9.932zm0-21.334V16h-9.932V1.778h9.932zM8.513 16H1.419v14.222h7.094V16zm0-14.222v7.11H1.419v-7.11h7.094zM14.188 0c-.784 0-1.419.796-1.419 1.778V16c0 .982.635 1.778 1.419 1.778h9.932c.783 0 1.418-.796 1.418-1.778V1.778C25.538.796 24.903 0 24.12 0h-9.932zm0 21.333c-.784 0-1.419.796-1.419 1.778v7.111c0 .982.635 1.778 1.419 1.778h9.932c.783 0 1.418-.796 1.418-1.778v-7.11c0-.983-.635-1.779-1.418-1.779h-9.932zM0 16c0-.982.635-1.778 1.419-1.778h7.094c.783 0 1.419.796 1.419 1.778v14.222c0 .982-.636 1.778-1.42 1.778H1.42C.635 32 0 31.204 0 30.222V16zM1.419 0C.635 0 0 .796 0 1.778v7.11c0 .983.635 1.779 1.419 1.779h7.094c.783 0 1.419-.796 1.419-1.778V1.778C9.932.796 9.296 0 8.512 0H1.42z"/></symbol><symbol id="icon-twitter" viewBox="0 0 40 32"><path fill="var(--color5, #26a7de)" d="M40 3.744c-1.38.592-2.956.986-4.728 1.182 1.576-.986 2.954-2.56 3.546-4.334-1.576.984-3.35 1.576-5.124 1.97C32.314.986 30.148 0 27.784 0c-4.532 0-8.08 3.546-8.08 7.88 0 .592 0 1.184.198 1.776C13.2 9.26 7.29 6.108 3.152 1.38a7.044 7.044 0 00-1.18 3.921v.02-.001c0 2.76 1.378 5.124 3.546 6.7-1.38 0-2.562-.394-3.744-.986v.198c0 3.94 2.758 7.094 6.5 7.88-.59.2-1.378.2-2.166.2-.59 0-.984 0-1.576-.2 1.029 3.219 3.989 5.511 7.487 5.52h.001C9.26 26.796 5.714 27.98 1.97 27.98c-.59 0-1.38 0-1.97-.196 3.546 2.364 7.88 3.546 12.414 3.546 14.78 0 23.054-12.216 23.054-22.66v-.986C37.636 6.7 39.014 5.32 40 3.744z"/></symbol><symbol id="icon-linkedin" viewBox="0 0 32 32"><path fill="var(--color6, #0077b5)" d="M29.6 0H2.4C1.12 0 0 .965 0 2.251V29.75c0 1.285 1.12 2.251 2.4 2.251h27.2c1.28 0 2.4-.965 2.4-2.251V2.251C32 1.126 30.88 0 29.6 0zM9.44 27.497h-4.8V12.221h4.8v15.276zM7.04 9.97c-1.6 0-2.72-1.287-2.72-2.734S5.6 4.504 7.04 4.504s2.72 1.285 2.72 2.732C9.92 8.845 8.64 9.97 7.04 9.97zM27.2 27.499h-4.8v-7.397c0-1.769 0-4.021-2.4-4.021s-2.88 1.931-2.88 4.021v7.556h-4.8V12.385h4.48v2.087c.64-1.287 2.24-2.412 4.48-2.412 4.8 0 5.76 3.216 5.76 7.236v8.201h.16z"/></symbol><symbol id="icon-company3" viewBox="0 0 31 32"><path fill="var(--color1, #8491a0)" d="M29.546 0H.369a.369.369 0 00-.131.714l.003.001 26.39 8.64a.135.135 0 00.162-.063v-.001l3.937-7.305A1.346 1.346 0 0029.546.001zM.007 30.541a.356.356 0 00.668.171l.001-.002 5.076-9.404a1.346 1.346 0 011.184-.706h12.952c.51 0 .953-.284 1.182-.701l.004-.007 3.87-7.175a.107.107 0 00-.002-.106v.001a.108.108 0 00-.092-.052H1.353c-.744 0-1.346.603-1.346 1.346V30.54z"/></symbol><symbol id="icon-company4" viewBox="0 0 32 32"><path fill="var(--color1, #8491a0)" d="M29.696 0H15.464C6.926 0 0 5.947 0 14.487v10.042C6.234 11.782 21.387 2.828 29.696 0z"/><path fill="var(--color1, #8491a0)" d="M1.524 32h12.613c8.541 0 15.465-6.924 15.465-15.465V.739C16.436 8.05 7.426 19.43 1.524 32z"/></symbol><symbol id="icon-skillset3" viewBox="0 0 32 32"><path fill="none" stroke="var(--color2, #5221e6)" stroke-width="2" d="M31 16c0 8.284-6.716 15-15 15S1 24.284 1 16C1 7.716 7.716 1 16 1s15 6.716 15 15z"/><path fill="var(--color2, #5221e6)" d="M21 16l-7.5 4.33v-8.66L21 16z"/></symbol><symbol id="icon-menu-icon" viewBox="0 0 52 32"><path fill="var(--color7, #c4c4c4)" d="M0 0h52.364v8.727H0zm14.545 23.273h37.818V32H14.545z"/></symbol></defs></svg>